<svg width="666" height="680" viewBox="0 0 666 680" fill="none" xmlns="http://www.w3.org/2000/svg">
<path fill-rule="evenodd" clip-rule="evenodd" d="M538.801 240.429C561.582 281.162 613.379 311.778 611.569 357.888C609.74 404.469 549.867 422.64 530.036 463.672C510.203 504.708 527.081 563.229 496.453 596.069C466.288 628.413 415.789 629.376 371.851 633.284C329.988 637.009 288.04 630.935 247.149 618.248C206.69 605.696 164.347 591.553 134.686 559.703C105.601 528.472 105.309 480.25 83.9553 443.013C59.7218 400.754 2.1926 373.928 0.453941 325.626C-1.26071 277.99 47.2685 247.694 75.6243 211.567C99.608 181.01 128.487 157.109 154.913 128.835C185.761 95.8292 204.349 48.2519 245.284 30.0432C287.472 11.2771 339.239 9.10646 383.181 27.2966C426.701 45.3126 454.837 89.5637 483.33 128.586C508.117 162.534 518.239 203.662 538.801 240.429Z" fill="#EE0064"/>
<path fill-rule="evenodd" clip-rule="evenodd" d="M332.521 39.7532C376.145 37.2155 415.394 61.8091 457.395 73.8705C502.962 86.9561 561.059 78.2452 591.91 114.243C623.084 150.619 599.65 208.489 612.352 254.681C624.48 298.785 669.46 334.078 664.876 379.589C660.311 424.912 619.529 457.475 588.561 490.884C560.566 521.085 527.4 544.297 492.276 565.794C456.689 587.574 422.064 616.462 380.382 618.295C338.875 620.12 305.745 583.259 264.874 575.794C213.236 566.363 154.849 595.309 109.53 568.824C65.2817 542.965 32.9607 490.209 30.8092 439.005C28.603 386.498 82.121 348.693 98.1777 298.653C111.169 258.165 95.6965 211.37 115.864 173.935C136.438 135.743 174.688 111.012 211.569 88.1705C248.958 65.0144 288.616 42.3072 332.521 39.7532Z" fill="#FF2D6C"/>
<path fill-rule="evenodd" clip-rule="evenodd" d="M654.176 214.176C658.266 265.431 611.946 307 600.909 357.493C590.7 404.194 617.819 456.965 592.185 497.764C566.363 538.862 508.336 543.39 467.352 570.06C414.02 604.767 377.622 672.22 314.358 678.563C251.278 684.888 179.201 654.64 145.793 602.303C111.501 548.579 157.952 476.431 145.448 413.943C135.874 366.094 90.1193 332.929 82.2544 284.754C72.7274 226.399 66.2399 162.391 95.8817 110.335C126.524 56.5219 181.767 7.00222 243.868 0.933393C306.815 -5.21806 349.229 66.6282 410.792 79.5605C466.109 91.1807 528.934 43.9645 578.058 71.1353C626.58 97.9725 649.799 159.314 654.176 214.176Z" fill="#FFABCA"/>
</svg>
