<svg width="103" height="22" viewBox="0 0 103 22" fill="none" xmlns="http://www.w3.org/2000/svg">
<path d="M35.634 17.216C34.626 17.216 33.66 17.084 32.736 16.82C31.812 16.544 31.068 16.19 30.504 15.758L31.494 13.562C32.034 13.946 32.67 14.264 33.402 14.516C34.146 14.756 34.896 14.876 35.652 14.876C36.228 14.876 36.69 14.822 37.038 14.714C37.398 14.594 37.662 14.432 37.83 14.228C37.998 14.024 38.082 13.79 38.082 13.526C38.082 13.19 37.95 12.926 37.686 12.734C37.422 12.53 37.074 12.368 36.642 12.248C36.21 12.116 35.73 11.996 35.202 11.888C34.686 11.768 34.164 11.624 33.636 11.456C33.12 11.288 32.646 11.072 32.214 10.808C31.782 10.544 31.428 10.196 31.152 9.764C30.888 9.332 30.756 8.78 30.756 8.108C30.756 7.388 30.948 6.734 31.332 6.146C31.728 5.546 32.316 5.072 33.096 4.724C33.888 4.364 34.878 4.184 36.066 4.184C36.858 4.184 37.638 4.28 38.406 4.472C39.174 4.652 39.852 4.928 40.44 5.3L39.54 7.514C38.952 7.178 38.364 6.932 37.776 6.776C37.188 6.608 36.612 6.524 36.048 6.524C35.484 6.524 35.022 6.59 34.662 6.722C34.302 6.854 34.044 7.028 33.888 7.244C33.732 7.448 33.654 7.688 33.654 7.964C33.654 8.288 33.786 8.552 34.05 8.756C34.314 8.948 34.662 9.104 35.094 9.224C35.526 9.344 36 9.464 36.516 9.584C37.044 9.704 37.566 9.842 38.082 9.998C38.61 10.154 39.09 10.364 39.522 10.628C39.954 10.892 40.302 11.24 40.566 11.672C40.842 12.104 40.98 12.65 40.98 13.31C40.98 14.018 40.782 14.666 40.386 15.254C39.99 15.842 39.396 16.316 38.604 16.676C37.824 17.036 36.834 17.216 35.634 17.216ZM49.6145 17V15.11L49.4345 14.696V11.312C49.4345 10.712 49.2485 10.244 48.8765 9.908C48.5165 9.572 47.9585 9.404 47.2025 9.404C46.6865 9.404 46.1765 9.488 45.6725 9.656C45.1805 9.812 44.7605 10.028 44.4125 10.304L43.4045 8.342C43.9325 7.97 44.5685 7.682 45.3125 7.478C46.0565 7.274 46.8125 7.172 47.5805 7.172C49.0565 7.172 50.2025 7.52 51.0185 8.216C51.8345 8.912 52.2425 9.998 52.2425 11.474V17H49.6145ZM46.6625 17.144C45.9065 17.144 45.2585 17.018 44.7185 16.766C44.1785 16.502 43.7645 16.148 43.4765 15.704C43.1885 15.26 43.0445 14.762 43.0445 14.21C43.0445 13.634 43.1825 13.13 43.4585 12.698C43.7465 12.266 44.1965 11.93 44.8085 11.69C45.4205 11.438 46.2185 11.312 47.2025 11.312H49.7765V12.95H47.5085C46.8485 12.95 46.3925 13.058 46.1405 13.274C45.9005 13.49 45.7805 13.76 45.7805 14.084C45.7805 14.444 45.9185 14.732 46.1945 14.948C46.4825 15.152 46.8725 15.254 47.3645 15.254C47.8325 15.254 48.2525 15.146 48.6245 14.93C48.9965 14.702 49.2665 14.372 49.4345 13.94L49.8665 15.236C49.6625 15.86 49.2905 16.334 48.7505 16.658C48.2105 16.982 47.5145 17.144 46.6625 17.144ZM58.0059 15.02L58.0779 11.6L62.5959 7.316H65.9439L61.6059 11.726L60.1479 12.914L58.0059 15.02ZM55.6839 17V3.644H58.4919V17H55.6839ZM62.9019 17L59.6259 12.932L61.3899 10.754L66.3039 17H62.9019ZM72.3769 17.144C71.5729 17.144 70.8529 16.988 70.2169 16.676C69.5929 16.364 69.1069 15.89 68.7589 15.254C68.4109 14.606 68.2369 13.784 68.2369 12.788V7.316H71.0449V12.374C71.0449 13.178 71.2129 13.772 71.5489 14.156C71.8969 14.528 72.3829 14.714 73.0069 14.714C73.4389 14.714 73.8229 14.624 74.1589 14.444C74.4949 14.252 74.7589 13.964 74.9509 13.58C75.1429 13.184 75.2389 12.692 75.2389 12.104V7.316H78.0469V17H75.3829V14.336L75.8689 15.11C75.5449 15.782 75.0649 16.292 74.4289 16.64C73.8049 16.976 73.1209 17.144 72.3769 17.144ZM81.5483 17V7.316H84.2303V10.052L83.8523 9.26C84.1403 8.576 84.6023 8.06 85.2383 7.712C85.8743 7.352 86.6483 7.172 87.5603 7.172V9.764C87.4403 9.752 87.3323 9.746 87.2363 9.746C87.1403 9.734 87.0383 9.728 86.9303 9.728C86.1623 9.728 85.5383 9.95 85.0583 10.394C84.5903 10.826 84.3563 11.504 84.3563 12.428V17H81.5483ZM95.4372 17V15.11L95.2572 14.696V11.312C95.2572 10.712 95.0712 10.244 94.6992 9.908C94.3392 9.572 93.7812 9.404 93.0252 9.404C92.5092 9.404 91.9992 9.488 91.4952 9.656C91.0032 9.812 90.5832 10.028 90.2352 10.304L89.2272 8.342C89.7552 7.97 90.3912 7.682 91.1352 7.478C91.8792 7.274 92.6352 7.172 93.4032 7.172C94.8792 7.172 96.0252 7.52 96.8412 8.216C97.6572 8.912 98.0652 9.998 98.0652 11.474V17H95.4372ZM92.4852 17.144C91.7292 17.144 91.0812 17.018 90.5412 16.766C90.0012 16.502 89.5872 16.148 89.2992 15.704C89.0112 15.26 88.8672 14.762 88.8672 14.21C88.8672 13.634 89.0052 13.13 89.2812 12.698C89.5692 12.266 90.0192 11.93 90.6312 11.69C91.2432 11.438 92.0412 11.312 93.0252 11.312H95.5992V12.95H93.3312C92.6712 12.95 92.2152 13.058 91.9632 13.274C91.7232 13.49 91.6032 13.76 91.6032 14.084C91.6032 14.444 91.7412 14.732 92.0172 14.948C92.3052 15.152 92.6952 15.254 93.1872 15.254C93.6552 15.254 94.0752 15.146 94.4472 14.93C94.8192 14.702 95.0892 14.372 95.2572 13.94L95.6892 15.236C95.4852 15.86 95.1132 16.334 94.5732 16.658C94.0332 16.982 93.3372 17.144 92.4852 17.144Z" fill="white"/>
<path fill-rule="evenodd" clip-rule="evenodd" d="M10.6343 11.2615C9.64825 12.3535 9.75807 14.5765 10.9711 16.5295C12.1876 18.4883 14.0977 19.5054 15.4599 19.0075L15.6568 18.3739L16.3193 18.387C17.2216 17.2663 17.0859 15.11 15.9055 13.2095C15.7568 12.97 15.5977 12.7447 15.4306 12.5345C15.0473 12.6115 14.6391 12.653 14.2157 12.653C12.6536 12.653 11.2997 12.0876 10.6343 11.2615Z" fill="#FF2D6C"/>
<path fill-rule="evenodd" clip-rule="evenodd" d="M9.93849 11.2693C8.63296 10.6373 6.63941 11.4431 5.23824 13.2546C3.83294 15.0713 3.50424 17.278 4.38573 18.4682L5.02551 18.464L5.22138 19.1229C6.5269 19.663 8.45141 18.8525 9.81496 17.0897C9.98675 16.8676 10.1424 16.6397 10.2818 16.4086C10.0913 16.0539 9.92535 15.6636 9.79251 15.2451C9.30249 13.7014 9.39365 12.1859 9.93849 11.2693Z" fill="#FF2D6C"/>
<path fill-rule="evenodd" clip-rule="evenodd" d="M9.69811 10.6496C9.88133 9.1632 8.53958 7.42987 6.45651 6.58869C4.36733 5.74505 2.24721 6.08742 1.42446 7.3223L1.62214 7.95562L1.07814 8.3495C0.979008 9.80809 2.30409 11.4715 4.33121 12.2901C4.58658 12.3932 4.84243 12.4786 5.09629 12.5469C5.36331 12.2505 5.67045 11.9676 6.01339 11.7091C7.27849 10.7554 8.69376 10.3868 9.69811 10.6496Z" fill="#FF2D6C"/>
<path fill-rule="evenodd" clip-rule="evenodd" d="M10.7924 10.6068C11.488 11.9189 13.5544 12.4928 15.7126 11.8911C17.8772 11.2876 19.3938 9.70802 19.3569 8.20576L18.838 7.81621L19.0535 7.16398C18.3058 5.92602 16.2926 5.39827 14.1923 5.98384C13.9277 6.05761 13.6728 6.14596 13.4292 6.24698C13.382 6.65029 13.2946 7.06733 13.1646 7.48676C12.6849 9.03402 11.752 10.2015 10.7924 10.6068Z" fill="#FF2D6C"/>
<path fill-rule="evenodd" clip-rule="evenodd" d="M10.226 10.2223C11.6392 9.93501 12.7971 8.06356 12.9079 5.74087C13.0191 3.41138 12.039 1.42493 10.6538 1.0012L10.1386 1.39597L9.60805 0.982666C8.24678 1.34421 7.14735 3.17718 7.03947 5.43748C7.02588 5.72224 7.0286 6.00185 7.04637 6.27413C7.40074 6.44452 7.75541 6.65881 8.09917 6.91615C9.36733 7.86544 10.1493 9.14734 10.226 10.2223Z" fill="#FF2D6C"/>
</svg>
