<svg width="102" height="98" viewBox="0 0 102 98" fill="none" xmlns="http://www.w3.org/2000/svg">
<path fill-rule="evenodd" clip-rule="evenodd" d="M54.2352 55.1816C49.2061 60.5323 49.7662 71.4249 55.9525 80.9947C62.157 90.5925 71.8981 95.5763 78.8457 93.137L79.8496 90.0322L83.2285 90.0966C87.8303 84.6047 87.1383 74.0393 81.1182 64.7266C80.3598 63.5533 79.5485 62.4492 78.6959 61.4189C76.7412 61.7964 74.6597 62 72.5001 62C64.5336 62 57.6283 59.2291 54.2352 55.1816Z" fill="#FF2D6C"/>
<path fill-rule="evenodd" clip-rule="evenodd" d="M50.6864 55.2194C44.0282 52.1226 33.8611 56.0714 26.7151 64.9475C19.5481 73.8496 17.8717 84.6623 22.3673 90.4941L25.6302 90.4734L26.6291 93.702C33.2873 96.3487 43.1023 92.3772 50.0564 83.7395C50.9325 82.6513 51.7265 81.5346 52.4373 80.402C51.4657 78.6643 50.6194 76.7517 49.9419 74.7012C47.4428 67.1367 47.9077 59.7109 50.6864 55.2194Z" fill="#FF2D6C"/>
<path fill-rule="evenodd" clip-rule="evenodd" d="M49.4604 52.1831C50.3948 44.8997 43.5519 36.4064 32.9282 32.2846C22.2734 28.1508 11.4608 29.8284 7.26479 35.8793L8.27292 38.9826L5.49855 40.9126C4.99296 48.0597 11.7509 56.2106 22.0892 60.2216C23.3916 60.7269 24.6964 61.1454 25.9911 61.4797C27.3529 60.0274 28.9193 58.6415 30.6683 57.3747C37.1203 52.7017 44.3382 50.8954 49.4604 52.1831Z" fill="#FF2D6C"/>
<path fill-rule="evenodd" clip-rule="evenodd" d="M55.0412 51.9733C58.5889 58.4026 69.1271 61.2147 80.1343 58.2662C91.1737 55.309 98.9081 47.5692 98.7203 40.2081L96.0739 38.2993L97.1728 35.1034C93.3596 29.0374 83.0922 26.4514 72.3806 29.3207C71.0312 29.6822 69.7312 30.1151 68.489 30.6101C68.2479 32.5863 67.8024 34.6298 67.1392 36.685C64.6927 44.2666 59.9351 49.9871 55.0412 51.9733Z" fill="#FF2D6C"/>
<path fill-rule="evenodd" clip-rule="evenodd" d="M52.1527 50.0891C59.3597 48.6816 65.265 39.5115 65.8303 28.1303C66.3973 16.7158 61.399 6.9822 54.3343 4.9059L51.7066 6.84028L49.001 4.8151C42.0585 6.58669 36.4514 15.5682 35.9012 26.6437C35.8319 28.039 35.8458 29.4091 35.9364 30.7433C37.7437 31.5782 39.5525 32.6282 41.3057 33.8892C47.7733 38.5407 51.7613 44.822 52.1527 50.0891Z" fill="#FF2D6C"/>
</svg>
